# Blender v2.79 (sub 0) OBJ File: 'Rock.blend'
# www.blender.org
mtllib rock.mtl
v 0.025851 -0.933455 -0.015877
v 0.727256 -0.480516 0.500541
v -0.457471 -0.525119 1.029300
v -1.415026 -0.590811 -0.228413
v -0.621380 -0.689591 -1.237616
v 0.806522 -0.521267 -0.918810
v 0.410825 0.432827 1.071685
v -1.216369 0.349310 0.480001
v -1.277115 0.199058 -0.931522
v 0.191224 0.350251 -1.122197
v 1.033900 0.368126 -0.572213
v 0.179695 1.122391 0.091064
v -0.248942 -0.882456 0.554309
v 0.432146 -0.827430 0.320907
v 0.204129 -0.574713 1.002126
v 0.947006 -0.532648 -0.347910
v 0.520693 -0.686334 -0.448065
v -0.733308 -0.920240 -0.109768
v -1.104389 -0.624077 0.447438
v -0.265050 -0.900789 -0.635484
v -1.138803 -0.770689 -0.890921
v 0.208304 -0.593733 -1.038815
v 1.054093 -0.095934 -0.142481
v 1.082470 -0.163393 -0.959592
v -0.099711 -0.080582 1.312805
v 0.620242 -0.028311 0.947514
v -1.625176 -0.145080 0.121024
v -0.974826 -0.115237 0.896656
v -1.160080 -0.375058 -1.407223
v -1.559533 -0.233589 -0.682522
v 0.648393 -0.118644 -1.205249
v -0.275594 -0.217717 -1.373607
v 0.927735 0.570908 0.357740
v -0.336332 0.472557 0.997839
v -1.421289 0.418647 -0.185052
v -0.646853 0.373358 -1.071409
v 0.793141 0.438383 -0.958694
v 0.491484 0.901857 0.608190
v 0.718544 1.051544 -0.271140
v -0.539178 0.895581 0.408995
v -0.787936 0.898037 -0.277294
v 0.133926 0.984602 -0.488385
v -0.248942 -0.882456 0.554309
v -0.248942 -0.882456 0.554309
v -0.248942 -0.882456 0.554309
v -0.248942 -0.882456 0.554309
v -0.248942 -0.882456 0.554309
v 0.025851 -0.933455 -0.015877
v 0.025851 -0.933455 -0.015877
v 0.025851 -0.933455 -0.015877
v 0.025851 -0.933455 -0.015877
v 0.432146 -0.827430 0.320907
v 0.432146 -0.827430 0.320907
v 0.432146 -0.827430 0.320907
v 0.432146 -0.827430 0.320907
v 0.432146 -0.827430 0.320907
v 0.727256 -0.480516 0.500541
v 0.727256 -0.480516 0.500541
v 0.727256 -0.480516 0.500541
v 0.727256 -0.480516 0.500541
v 0.204129 -0.574713 1.002126
v 0.204129 -0.574713 1.002126
v 0.204129 -0.574713 1.002126
v 0.204129 -0.574713 1.002126
v 0.204129 -0.574713 1.002126
v -0.457471 -0.525119 1.029300
v -0.457471 -0.525119 1.029300
v -0.457471 -0.525119 1.029300
v -0.457471 -0.525119 1.029300
v 0.947006 -0.532648 -0.347910
v 0.947006 -0.532648 -0.347910
v 0.947006 -0.532648 -0.347910
v 0.947006 -0.532648 -0.347910
v 0.947006 -0.532648 -0.347910
v 0.520693 -0.686334 -0.448065
v 0.520693 -0.686334 -0.448065
v 0.520693 -0.686334 -0.448065
v 0.520693 -0.686334 -0.448065
v 0.520693 -0.686334 -0.448065
v 0.806522 -0.521267 -0.918810
v 0.806522 -0.521267 -0.918810
v 0.806522 -0.521267 -0.918810
v 0.806522 -0.521267 -0.918810
v -0.733308 -0.920240 -0.109768
v -0.733308 -0.920240 -0.109768
v -0.733308 -0.920240 -0.109768
v -0.733308 -0.920240 -0.109768
v -0.733308 -0.920240 -0.109768
v -1.104389 -0.624077 0.447438
v -1.104389 -0.624077 0.447438
v -1.104389 -0.624077 0.447438
v -1.104389 -0.624077 0.447438
v -1.104389 -0.624077 0.447438
v -1.415026 -0.590811 -0.228413
v -1.415026 -0.590811 -0.228413
v -1.415026 -0.590811 -0.228413
v -1.415026 -0.590811 -0.228413
v -0.265050 -0.900789 -0.635484
v -0.265050 -0.900789 -0.635484
v -0.265050 -0.900789 -0.635484
v -0.265050 -0.900789 -0.635484
v -0.265050 -0.900789 -0.635484
v -1.138803 -0.770689 -0.890921
v -1.138803 -0.770689 -0.890921
v -1.138803 -0.770689 -0.890921
v -1.138803 -0.770689 -0.890921
v -1.138803 -0.770689 -0.890921
v -0.621380 -0.689591 -1.237616
v -0.621380 -0.689591 -1.237616
v -0.621380 -0.689591 -1.237616
v -0.621380 -0.689591 -1.237616
v 0.208304 -0.593733 -1.038815
v 0.208304 -0.593733 -1.038815
v 0.208304 -0.593733 -1.038815
v 0.208304 -0.593733 -1.038815
v 0.208304 -0.593733 -1.038815
v 1.054093 -0.095934 -0.142481
v 1.054093 -0.095934 -0.142481
v 1.054093 -0.095934 -0.142481
v 1.054093 -0.095934 -0.142481
v 1.054093 -0.095934 -0.142481
v 1.082470 -0.163393 -0.959592
v 1.082470 -0.163393 -0.959592
v 1.082470 -0.163393 -0.959592
v 1.082470 -0.163393 -0.959592
v 1.082470 -0.163393 -0.959592
v 1.033900 0.368126 -0.572213
v 1.033900 0.368126 -0.572213
v 1.033900 0.368126 -0.572213
v 1.033900 0.368126 -0.572213
v -0.099711 -0.080582 1.312805
v -0.099711 -0.080582 1.312805
v -0.099711 -0.080582 1.312805
v -0.099711 -0.080582 1.312805
v -0.099711 -0.080582 1.312805
v 0.620242 -0.028311 0.947514
v 0.620242 -0.028311 0.947514
v 0.620242 -0.028311 0.947514
v 0.620242 -0.028311 0.947514
v 0.620242 -0.028311 0.947514
v 0.410825 0.432827 1.071685
v 0.410825 0.432827 1.071685
v 0.410825 0.432827 1.071685
v 0.410825 0.432827 1.071685
v -1.625176 -0.145080 0.121024
v -1.625176 -0.145080 0.121024
v -1.625176 -0.145080 0.121024
v -1.625176 -0.145080 0.121024
v -1.625176 -0.145080 0.121024
v -0.974826 -0.115237 0.896656
v -0.974826 -0.115237 0.896656
v -0.974826 -0.115237 0.896656
v -0.974826 -0.115237 0.896656
v -0.974826 -0.115237 0.896656
v -1.216369 0.349310 0.480001
v -1.216369 0.349310 0.480001
v -1.216369 0.349310 0.480001
v -1.216369 0.349310 0.480001
v -1.160080 -0.375058 -1.407223
v -1.160080 -0.375058 -1.407223
v -1.160080 -0.375058 -1.407223
v -1.160080 -0.375058 -1.407223
v -1.160080 -0.375058 -1.407223
v -1.559533 -0.233589 -0.682522
v -1.559533 -0.233589 -0.682522
v -1.559533 -0.233589 -0.682522
v -1.559533 -0.233589 -0.682522
v -1.559533 -0.233589 -0.682522
v -1.277115 0.199058 -0.931522
v -1.277115 0.199058 -0.931522
v -1.277115 0.199058 -0.931522
v -1.277115 0.199058 -0.931522
v 0.648393 -0.118644 -1.205249
v 0.648393 -0.118644 -1.205249
v 0.648393 -0.118644 -1.205249
v 0.648393 -0.118644 -1.205249
v 0.648393 -0.118644 -1.205249
v -0.275594 -0.217717 -1.373607
v -0.275594 -0.217717 -1.373607
v -0.275594 -0.217717 -1.373607
v -0.275594 -0.217717 -1.373607
v -0.275594 -0.217717 -1.373607
v 0.191224 0.350251 -1.122197
v 0.191224 0.350251 -1.122197
v 0.191224 0.350251 -1.122197
v 0.191224 0.350251 -1.122197
v 0.927735 0.570908 0.357740
v 0.927735 0.570908 0.357740
v 0.927735 0.570908 0.357740
v 0.927735 0.570908 0.357740
v 0.927735 0.570908 0.357740
v -0.336332 0.472557 0.997839
v -0.336332 0.472557 0.997839
v -0.336332 0.472557 0.997839
v -0.336332 0.472557 0.997839
v -0.336332 0.472557 0.997839
v -1.421289 0.418647 -0.185052
v -1.421289 0.418647 -0.185052
v -1.421289 0.418647 -0.185052
v -1.421289 0.418647 -0.185052
v -1.421289 0.418647 -0.185052
v -0.646853 0.373358 -1.071409
v -0.646853 0.373358 -1.071409
v -0.646853 0.373358 -1.071409
v -0.646853 0.373358 -1.071409
v -0.646853 0.373358 -1.071409
v 0.793141 0.438383 -0.958694
v 0.793141 0.438383 -0.958694
v 0.793141 0.438383 -0.958694
v 0.793141 0.438383 -0.958694
v 0.793141 0.438383 -0.958694
v 0.491484 0.901857 0.608190
v 0.491484 0.901857 0.608190
v 0.491484 0.901857 0.608190
v 0.491484 0.901857 0.608190
v 0.491484 0.901857 0.608190
v 0.718544 1.051544 -0.271140
v 0.718544 1.051544 -0.271140
v 0.718544 1.051544 -0.271140
v 0.718544 1.051544 -0.271140
v 0.718544 1.051544 -0.271140
v 0.179695 1.122391 0.091064
v 0.179695 1.122391 0.091064
v 0.179695 1.122391 0.091064
v 0.179695 1.122391 0.091064
v -0.539178 0.895581 0.408995
v -0.539178 0.895581 0.408995
v -0.539178 0.895581 0.408995
v -0.539178 0.895581 0.408995
v -0.539178 0.895581 0.408995
v -0.787936 0.898037 -0.277294
v -0.787936 0.898037 -0.277294
v -0.787936 0.898037 -0.277294
v -0.787936 0.898037 -0.277294
v -0.787936 0.898037 -0.277294
v 0.133926 0.984602 -0.488385
v 0.133926 0.984602 -0.488385
v 0.133926 0.984602 -0.488385
v 0.133926 0.984602 -0.488385
v 0.133926 0.984602 -0.488385
vt 0.719767 0.097246
vt 0.793409 0.225785
vt 0.615790 0.215852
vt 0.797055 0.364930
vt 0.793409 0.225785
vt 0.926813 0.362001
vt 0.719767 0.097246
vt 0.615790 0.215852
vt 0.424250 0.215747
vt 0.719767 0.097246
vt 0.424250 0.215747
vt 0.266355 0.212077
vt 0.088302 0.128678
vt 0.266355 0.212077
vt 0.090279 0.272334
vt 0.797055 0.364930
vt 0.926813 0.362001
vt 0.899602 0.475818
vt 0.606651 0.364390
vt 0.692946 0.354316
vt 0.650515 0.475957
vt 0.419406 0.356339
vt 0.498669 0.337035
vt 0.451416 0.443175
vt 0.282130 0.338955
vt 0.346215 0.327758
vt 0.315773 0.409453
vt 0.114826 0.376511
vt 0.186671 0.336035
vt 0.149836 0.460615
vt 0.797055 0.364930
vt 0.899602 0.475818
vt 0.742015 0.495497
vt 0.606651 0.364390
vt 0.650515 0.475957
vt 0.545610 0.454121
vt 0.419406 0.356339
vt 0.451416 0.443175
vt 0.382608 0.426694
vt 0.282130 0.338955
vt 0.315773 0.409453
vt 0.246354 0.428887
vt 0.114826 0.376511
vt 0.149836 0.460615
vt 0.100382 0.460224
vt 0.709402 0.601171
vt 0.830298 0.650981
vt 0.751153 0.743571
vt 0.491223 0.545184
vt 0.610611 0.606376
vt 0.519936 0.735096
vt 0.352042 0.500211
vt 0.421260 0.545943
vt 0.391330 0.695658
vt 0.199055 0.562003
vt 0.297491 0.548936
vt 0.200569 0.786545
vt 0.073309 0.580232
vt 0.126518 0.583555
vt 0.061428 0.761137
vt 0.942976 0.761137
vt 0.526712 0.954842
vt 0.559848 0.850540
vt 0.061428 0.761137
vt 0.126518 0.583555
vt 0.200569 0.786545
vt 0.126518 0.583555
vt 0.199055 0.562003
vt 0.200569 0.786545
vt 0.526712 0.954842
vt 0.391330 0.695658
vt 0.559848 0.850540
vt 0.200569 0.786545
vt 0.297491 0.548936
vt 0.391330 0.695658
vt 0.297491 0.548936
vt 0.352042 0.500211
vt 0.391330 0.695658
vt 0.391330 0.695658
vt 0.519936 0.735096
vt 0.559848 0.850540
vt 0.391330 0.695658
vt 0.421260 0.545943
vt 0.519936 0.735096
vt 0.421260 0.545943
vt 0.491223 0.545184
vt 0.519936 0.735096
vt 0.519936 0.735096
vt 0.751153 0.743571
vt 0.559848 0.850540
vt 0.519936 0.735096
vt 0.610611 0.606376
vt 0.751153 0.743571
vt 0.610611 0.606376
vt 0.709402 0.601171
vt 0.751153 0.743571
vt 0.751153 0.743571
vt 0.942976 0.761137
vt 0.559848 0.850540
vt 0.751153 0.743571
vt 0.830298 0.650981
vt 0.942976 0.761137
vt 0.830298 0.650981
vt 0.954856 0.580232
vt 0.942976 0.761137
vt 0.100382 0.460224
vt 0.126518 0.583555
vt 0.073309 0.580232
vt 0.100382 0.460224
vt 0.149836 0.460615
vt 0.126518 0.583555
vt 0.149836 0.460615
vt 0.199055 0.562003
vt 0.126518 0.583555
vt 0.246354 0.428887
vt 0.297491 0.548936
vt 0.199055 0.562003
vt 0.246354 0.428887
vt 0.315773 0.409453
vt 0.297491 0.548936
vt 0.315773 0.409453
vt 0.352042 0.500211
vt 0.297491 0.548936
vt 0.382608 0.426694
vt 0.421260 0.545943
vt 0.352042 0.500211
vt 0.382608 0.426694
vt 0.451416 0.443175
vt 0.421260 0.545943
vt 0.451416 0.443175
vt 0.491223 0.545184
vt 0.421260 0.545943
vt 0.545610 0.454121
vt 0.610611 0.606376
vt 0.491223 0.545184
vt 0.545610 0.454121
vt 0.650515 0.475957
vt 0.610611 0.606376
vt 0.650515 0.475957
vt 0.709402 0.601171
vt 0.610611 0.606376
vt 0.742015 0.495497
vt 0.830298 0.650981
vt 0.709402 0.601171
vt 0.742015 0.495497
vt 0.899602 0.475818
vt 0.830298 0.650981
vt 0.899602 0.475818
vt 0.954856 0.580232
vt 0.830298 0.650981
vt 0.149836 0.460615
vt 0.246354 0.428887
vt 0.199055 0.562003
vt 0.149836 0.460615
vt 0.186671 0.336035
vt 0.246354 0.428887
vt 0.186671 0.336035
vt 0.282130 0.338955
vt 0.246354 0.428887
vt 0.315773 0.409453
vt 0.382608 0.426694
vt 0.352042 0.500211
vt 0.315773 0.409453
vt 0.346215 0.327758
vt 0.382608 0.426694
vt 0.346215 0.327758
vt 0.419406 0.356339
vt 0.382608 0.426694
vt 0.451416 0.443175
vt 0.545610 0.454121
vt 0.491223 0.545184
vt 0.451416 0.443175
vt 0.498669 0.337035
vt 0.545610 0.454121
vt 0.498669 0.337035
vt 0.606651 0.364390
vt 0.545610 0.454121
vt 0.650515 0.475957
vt 0.742015 0.495497
vt 0.709402 0.601171
vt 0.650515 0.475957
vt 0.692946 0.354316
vt 0.742015 0.495497
vt 0.692946 0.354316
vt 0.797055 0.364930
vt 0.742015 0.495497
vt 0.018055 0.475818
vt 0.100382 0.460224
vt 0.073309 0.580232
vt 0.018055 0.475818
vt 0.045265 0.362001
vt 0.100382 0.460224
vt 0.045265 0.362001
vt 0.114826 0.376511
vt 0.100382 0.460224
vt 0.090279 0.272334
vt 0.186671 0.336035
vt 0.114826 0.376511
vt 0.090279 0.272334
vt 0.266355 0.212077
vt 0.186671 0.336035
vt 0.266355 0.212077
vt 0.282130 0.338955
vt 0.186671 0.336035
vt 0.266355 0.212077
vt 0.346215 0.327758
vt 0.282130 0.338955
vt 0.266355 0.212077
vt 0.424250 0.215747
vt 0.346215 0.327758
vt 0.424250 0.215747
vt 0.419406 0.356339
vt 0.346215 0.327758
vt 0.424250 0.215747
vt 0.498669 0.337035
vt 0.419406 0.356339
vt 0.424250 0.215747
vt 0.615790 0.215852
vt 0.498669 0.337035
vt 0.615790 0.215852
vt 0.606651 0.364390
vt 0.498669 0.337035
vt 0.045265 0.362001
vt 0.090279 0.272334
vt 0.114826 0.376511
vt 0.926813 0.362001
vt 0.793409 0.225785
vt 0.971827 0.272334
vt 0.793409 0.225785
vt 0.719767 0.097246
vt 0.971827 0.272334
vt 0.615790 0.215852
vt 0.692946 0.354316
vt 0.606651 0.364390
vt 0.615790 0.215852
vt 0.793409 0.225785
vt 0.692946 0.354316
vt 0.793409 0.225785
vt 0.797055 0.364930
vt 0.692946 0.354316
vn 0.1308 -0.9799 0.1507
vn 0.6839 -0.6956 0.2199
vn -0.0268 -0.9967 0.0762
vn -0.0115 -0.9988 -0.0472
vn 0.3005 -0.9346 -0.1903
vn 0.9044 -0.3418 0.2553
vn -0.0054 -0.5346 0.8451
vn -0.7417 -0.5940 0.3116
vn -0.2673 -0.7702 -0.5791
vn 0.2282 -0.5033 -0.8334
vn 0.9149 -0.1528 0.3736
vn -0.4102 -0.2323 0.8819
vn -0.9129 -0.4071 -0.0297
vn 0.0960 -0.3400 -0.9355
vn 0.4159 -0.4130 -0.8102
vn 0.6772 0.4550 0.5783
vn -0.4535 0.6425 0.6178
vn -0.5998 0.7288 -0.3302
vn -0.0235 0.7056 -0.7083
vn 0.7640 0.5205 -0.3813
vn -0.0262 0.9730 -0.2293
vn 0.1554 0.7456 -0.6480
vn 0.0867 0.7081 -0.7008
vn -0.1407 0.9656 -0.2185
vn -0.2044 0.7996 -0.5646
vn -0.3340 0.7581 -0.5602
vn -0.2599 0.9607 0.0976
vn -0.5705 0.7941 0.2096
vn -0.5893 0.7645 0.2613
vn -0.0897 0.8955 0.4360
vn -0.1220 0.7857 0.6065
vn -0.0325 0.7053 0.7081
vn 0.2775 0.9327 0.2304
vn 0.6785 0.6749 0.2901
vn 0.9102 0.4140 0.0136
vn 0.8115 0.3908 -0.4345
vn 0.4968 0.2401 -0.8340
vn 0.1966 0.3537 -0.9145
vn -0.0426 0.4335 -0.9002
vn -0.0429 0.4333 -0.9002
vn -0.3245 0.5634 -0.7598
vn -0.8694 0.4027 -0.2864
vn -0.9523 0.2851 -0.1092
vn -0.8308 0.4658 0.3046
vn -0.5036 0.4168 0.7567
vn -0.4185 0.3075 0.8545
vn -0.0616 0.4738 0.8785
vn 0.7771 0.1914 0.5996
vn 0.9217 -0.1055 0.3734
vn 0.9887 0.1228 0.0861
vn 0.1393 0.3028 -0.9428
vn 0.2068 -0.4886 -0.8477
vn 0.2570 -0.4368 -0.8621
vn -0.8267 0.2494 -0.5044
vn -0.7993 -0.4925 -0.3444
vn -0.8072 -0.5608 -0.1843
vn -0.7583 0.1701 0.6293
vn -0.7091 -0.3565 0.6083
vn -0.5495 -0.4700 0.6908
vn 0.4541 -0.0335 0.8903
vn 0.4519 -0.2588 0.8537
vn 0.6608 -0.4427 0.6061
vn 0.9971 0.0701 0.0288
vn 0.9634 -0.2622 0.0551
vn 0.7647 -0.6125 -0.2004
vn 0.1635 -0.9578 -0.2366
vn 0.3183 -0.8963 -0.3088
vn 0.2045 -0.8796 -0.4296
vn -0.0534 -0.9517 -0.3023
vn -0.1079 -0.9853 -0.1326
vn -0.4426 -0.8948 0.0584
vn -0.4522 -0.8766 0.1647
vn -0.3094 -0.9096 0.2774
vn -0.3080 -0.8203 0.4819
vn 0.3593 -0.9271 -0.1069
vn 0.3628 -0.9231 -0.1276
vn 0.3498 -0.9278 -0.1299
vn -0.0362 -0.8062 0.5906
vn 0.2095 -0.8918 0.4010
vn 0.5543 -0.7026 0.4462
usemtl None
s off
f 48/1/1 53/2/1 43/3/1
f 57/4/2 52/5/2 70/6/2
f 49/7/3 45/8/3 84/9/3
f 50/10/4 86/11/4 98/12/4
f 51/13/5 100/14/5 76/15/5
f 58/16/6 72/17/6 117/18/6
f 66/19/7 61/20/7 131/21/7
f 94/22/8 89/23/8 145/24/8
f 108/25/9 103/26/9 159/27/9
f 81/28/10 112/29/10 173/30/10
f 60/31/11 119/32/11 137/33/11
f 69/34/12 133/35/12 151/36/12
f 97/37/13 147/38/13 165/39/13
f 111/40/14 161/41/14 179/42/14
f 83/43/15 175/44/15 123/45/15
f 142/46/16 187/47/16 212/48/16
f 156/49/17 192/50/17 226/51/17
f 170/52/18 197/53/18 231/54/18
f 184/55/19 202/56/19 236/57/19
f 128/58/20 207/59/20 218/60/20
f 217/61/21 237/62/21 222/63/21
f 39/64/22 209/65/22 238/66/22
f 208/67/23 186/68/23 240/69/23
f 239/70/24 232/71/24 225/72/24
f 42/73/25 204/74/25 233/75/25
f 203/76/26 172/77/26 235/78/26
f 234/79/27 227/80/27 224/81/27
f 41/82/28 199/83/28 228/84/28
f 198/85/29 158/86/29 230/87/29
f 229/88/30 213/89/30 223/90/30
f 40/91/31 194/92/31 214/93/31
f 193/94/32 144/95/32 216/96/32
f 215/97/33 219/98/33 12/99/33
f 38/100/34 189/101/34 220/102/34
f 188/103/35 130/104/35 221/105/35
f 122/106/36 210/107/36 127/108/36
f 24/109/37 176/110/37 211/111/37
f 174/112/38 185/113/38 37/114/38
f 178/115/39 205/116/39 183/117/39
f 32/118/40 162/119/40 206/120/40
f 160/121/41 171/122/41 36/123/41
f 164/124/42 200/125/42 169/126/42
f 30/127/43 148/128/43 201/129/43
f 146/130/44 157/131/44 35/132/44
f 150/133/45 195/134/45 155/135/45
f 28/136/46 134/137/46 196/138/46
f 132/139/47 143/140/47 34/141/47
f 136/142/48 190/143/48 141/144/48
f 26/145/49 120/146/49 191/147/49
f 118/148/50 129/149/50 33/150/50
f 177/151/51 180/152/51 10/153/51
f 31/154/52 114/155/52 181/156/52
f 113/157/53 110/158/53 182/159/53
f 163/160/54 166/161/54 9/162/54
f 29/163/55 105/164/55 167/165/55
f 104/166/56 96/167/56 168/168/56
f 149/169/57 152/170/57 8/171/57
f 27/172/58 91/173/58 153/174/58
f 90/175/59 68/176/59 154/177/59
f 135/178/60 138/179/60 7/180/60
f 25/181/61 63/182/61 139/183/61
f 62/184/62 59/185/62 140/186/62
f 121/187/63 124/188/63 11/189/63
f 23/190/64 73/191/64 125/192/64
f 71/193/65 82/194/65 126/195/65
f 75/196/66 115/197/66 80/198/66
f 17/199/67 101/200/67 116/201/67
f 99/202/68 109/203/68 22/204/68
f 102/205/69 106/206/69 5/207/69
f 20/208/70 87/209/70 107/210/70
f 85/211/71 95/212/71 21/213/71
f 88/214/72 92/215/72 4/216/72
f 18/217/73 46/218/73 93/219/73
f 44/220/74 67/221/74 19/222/74
f 74/223/75 77/224/75 6/225/75
f 16/226/76 54/227/76 78/228/76
f 56/229/77 1/230/77 79/231/77
f 47/232/78 64/233/78 3/234/78
f 13/235/79 55/236/79 65/237/79
f 14/238/80 2/239/80 15/240/80
