# Blender v2.79 (sub 0) OBJ File: 'Sword1.blend'
# www.blender.org
v -0.074444 -0.321548 0.063965
v -0.074444 1.043119 0.063965
v -0.074444 -0.321548 -0.063965
v -0.074444 1.043119 -0.063965
v 0.074444 -0.321548 0.063965
v 0.074444 1.043119 0.063965
v 0.074444 -0.321548 -0.063965
v 0.074444 1.043119 -0.063965
v -0.127936 -0.321548 0.000000
v -0.127936 1.043119 0.000000
v 0.127936 -0.321548 0.000000
v 0.127936 1.043119 0.000000
v 0.000000 1.205038 0.000000
v -0.127936 -0.395251 0.000000
v -0.074444 -0.395251 0.063965
v 0.074444 -0.395251 -0.063965
v -0.074444 -0.395251 -0.063965
v 0.127936 -0.395251 0.000000
v 0.074444 -0.395251 0.063965
v -0.127936 -0.584333 0.000000
v -0.074444 -0.584333 0.063965
v 0.074444 -0.584333 -0.063965
v -0.074444 -0.584333 -0.063965
v 0.127936 -0.584333 0.000000
v 0.074444 -0.584333 0.063965
v -0.073731 -0.647715 0.000000
v -0.042902 -0.647715 0.063965
v 0.042902 -0.647715 -0.063965
v -0.042902 -0.647715 -0.063965
v 0.073731 -0.647715 0.000000
v 0.042902 -0.647715 0.063965
v -0.073731 -1.189675 0.000000
v -0.042902 -1.189675 0.063965
v 0.042902 -1.189675 -0.063965
v -0.042902 -1.189675 -0.063965
v 0.073731 -1.189675 0.000000
v 0.042902 -1.189675 0.063965
v -0.255872 -0.321548 0.000000
v -0.148887 -0.321548 0.127930
v 0.148887 -0.321548 -0.127930
v -0.148887 -0.321548 -0.127930
v 0.255872 -0.321548 0.000000
v 0.148887 -0.321548 0.127930
v -0.255872 -0.395251 0.000000
v -0.148887 -0.395251 0.127930
v 0.148887 -0.395251 -0.127930
v -0.148887 -0.395251 -0.127930
v 0.255872 -0.395251 0.000000
v 0.148887 -0.395251 0.127930
v -0.255872 -0.584333 0.000000
v -0.148887 -0.584333 0.127930
v 0.148887 -0.584333 -0.127930
v -0.148887 -0.584333 -0.127930
v 0.255872 -0.584333 0.000000
v 0.148887 -0.584333 0.127930
v -0.255872 -0.647715 0.000000
v -0.148887 -0.647715 0.127930
v 0.148887 -0.647715 -0.127930
v -0.148887 -0.647715 -0.127930
v 0.255872 -0.647715 0.000000
v 0.148887 -0.647715 0.127930
v 0.042902 -1.114549 -0.063965
v -0.042902 -1.114549 -0.063965
v -0.073731 -1.114549 0.000000
v 0.073731 -1.114549 0.000000
v -0.042902 -1.114549 0.063965
v 0.042902 -1.114549 0.063965
v -0.042902 -1.050929 -0.063965
v -0.073731 -1.050929 0.000000
v -0.042902 -1.050929 0.063965
v 0.042902 -1.050929 -0.063965
v 0.073731 -1.050929 0.000000
v 0.042902 -1.050929 0.063965
v 0.085805 -1.050929 -0.127930
v 0.085805 -1.114549 -0.127930
v 0.147461 -1.050929 0.000000
v 0.147461 -1.114549 0.000000
v 0.085805 -1.050929 0.127930
v 0.085805 -1.114549 0.127930
v -0.085805 -1.114549 0.127930
v -0.147461 -1.114549 0.000000
v -0.085805 -1.114549 -0.127930
v -0.085805 -1.050929 -0.127930
v -0.147461 -1.050929 0.000000
v -0.085805 -1.050929 0.127930
v -0.127936 -0.321548 0.000000
v -0.127936 -0.321548 0.000000
v -0.127936 -0.321548 0.000000
v -0.074444 -0.321548 0.063965
v -0.074444 -0.321548 0.063965
v -0.074444 -0.321548 0.063965
v -0.074444 1.043119 0.063965
v -0.074444 1.043119 0.063965
v -0.074444 1.043119 0.063965
v -0.127936 1.043119 0.000000
v -0.127936 1.043119 0.000000
v -0.127936 1.043119 0.000000
v -0.074444 1.043119 -0.063965
v -0.074444 1.043119 -0.063965
v -0.074444 1.043119 -0.063965
v -0.074444 -0.321548 -0.063965
v -0.074444 -0.321548 -0.063965
v -0.074444 -0.321548 -0.063965
v 0.074444 -0.321548 -0.063965
v 0.074444 -0.321548 -0.063965
v 0.074444 -0.321548 -0.063965
v 0.074444 1.043119 -0.063965
v 0.074444 1.043119 -0.063965
v 0.074444 1.043119 -0.063965
v 0.127936 -0.321548 0.000000
v 0.127936 -0.321548 0.000000
v 0.127936 -0.321548 0.000000
v 0.127936 1.043119 0.000000
v 0.127936 1.043119 0.000000
v 0.127936 1.043119 0.000000
v 0.074444 1.043119 0.063965
v 0.074444 1.043119 0.063965
v 0.074444 1.043119 0.063965
v 0.074444 -0.321548 0.063965
v 0.074444 -0.321548 0.063965
v 0.074444 -0.321548 0.063965
v 0.000000 1.205038 0.000000
v 0.000000 1.205038 0.000000
v 0.000000 1.205038 0.000000
v 0.000000 1.205038 0.000000
v 0.000000 1.205038 0.000000
v -0.127936 -0.395251 0.000000
v -0.127936 -0.395251 0.000000
v -0.127936 -0.395251 0.000000
v -0.074444 -0.395251 0.063965
v -0.074444 -0.395251 0.063965
v -0.074444 -0.395251 0.063965
v 0.074444 -0.395251 -0.063965
v 0.074444 -0.395251 -0.063965
v 0.074444 -0.395251 -0.063965
v -0.074444 -0.395251 -0.063965
v -0.074444 -0.395251 -0.063965
v -0.074444 -0.395251 -0.063965
v 0.127936 -0.395251 0.000000
v 0.127936 -0.395251 0.000000
v 0.127936 -0.395251 0.000000
v 0.074444 -0.395251 0.063965
v 0.074444 -0.395251 0.063965
v 0.074444 -0.395251 0.063965
v -0.255872 -0.321548 0.000000
v -0.255872 -0.321548 0.000000
v -0.255872 -0.321548 0.000000
v -0.148887 -0.584333 -0.127930
v -0.148887 -0.584333 -0.127930
v -0.148887 -0.584333 -0.127930
v -0.074444 -0.584333 -0.063965
v -0.074444 -0.584333 -0.063965
v -0.074444 -0.584333 -0.063965
v 0.074444 -0.584333 -0.063965
v 0.074444 -0.584333 -0.063965
v 0.074444 -0.584333 -0.063965
v 0.148887 -0.584333 -0.127930
v 0.148887 -0.584333 -0.127930
v 0.148887 -0.584333 -0.127930
v 0.148887 -0.321548 -0.127930
v 0.148887 -0.321548 -0.127930
v 0.148887 -0.321548 -0.127930
v 0.148887 -0.395251 0.127930
v 0.148887 -0.395251 0.127930
v 0.148887 -0.395251 0.127930
v 0.255872 -0.395251 0.000000
v 0.255872 -0.395251 0.000000
v 0.255872 -0.395251 0.000000
v -0.127936 -0.584333 0.000000
v -0.127936 -0.584333 0.000000
v -0.127936 -0.584333 0.000000
v -0.074444 -0.584333 0.063965
v -0.074444 -0.584333 0.063965
v -0.074444 -0.584333 0.063965
v 0.127936 -0.584333 0.000000
v 0.127936 -0.584333 0.000000
v 0.127936 -0.584333 0.000000
v 0.074444 -0.584333 0.063965
v 0.074444 -0.584333 0.063965
v 0.074444 -0.584333 0.063965
v -0.073731 -0.647715 0.000000
v -0.073731 -0.647715 0.000000
v -0.073731 -0.647715 0.000000
v -0.042902 -0.647715 0.063965
v -0.042902 -0.647715 0.063965
v -0.042902 -0.647715 0.063965
v 0.042902 -0.647715 -0.063965
v 0.042902 -0.647715 -0.063965
v 0.042902 -0.647715 -0.063965
v -0.042902 -0.647715 -0.063965
v -0.042902 -0.647715 -0.063965
v -0.042902 -0.647715 -0.063965
v 0.073731 -0.647715 0.000000
v 0.073731 -0.647715 0.000000
v 0.073731 -0.647715 0.000000
v 0.042902 -0.647715 0.063965
v 0.042902 -0.647715 0.063965
v 0.042902 -0.647715 0.063965
v 0.255872 -0.321548 0.000000
v 0.255872 -0.321548 0.000000
v 0.255872 -0.321548 0.000000
v 0.148887 -0.321548 0.127930
v 0.148887 -0.321548 0.127930
v 0.148887 -0.321548 0.127930
v -0.148887 -0.647715 0.127930
v -0.148887 -0.647715 0.127930
v -0.148887 -0.647715 0.127930
v 0.148887 -0.647715 0.127930
v 0.148887 -0.647715 0.127930
v 0.148887 -0.647715 0.127930
v -0.148887 -0.584333 0.127930
v -0.148887 -0.584333 0.127930
v -0.148887 -0.584333 0.127930
v -0.255872 -0.584333 0.000000
v -0.255872 -0.584333 0.000000
v -0.255872 -0.584333 0.000000
v -0.073731 -1.189675 0.000000
v -0.073731 -1.189675 0.000000
v -0.042902 -1.189675 0.063965
v -0.042902 -1.189675 0.063965
v 0.042902 -1.189675 -0.063965
v 0.042902 -1.189675 -0.063965
v -0.042902 -1.189675 -0.063965
v -0.042902 -1.189675 -0.063965
v 0.073731 -1.189675 0.000000
v 0.073731 -1.189675 0.000000
v 0.042902 -1.189675 0.063965
v 0.042902 -1.189675 0.063965
v 0.042902 -1.114549 -0.063965
v 0.042902 -1.114549 -0.063965
v 0.042902 -1.114549 -0.063965
v -0.042902 -1.050929 -0.063965
v -0.042902 -1.050929 -0.063965
v -0.042902 -1.050929 -0.063965
v -0.073731 -1.050929 0.000000
v -0.073731 -1.050929 0.000000
v -0.073731 -1.050929 0.000000
v 0.073731 -1.114549 0.000000
v 0.073731 -1.114549 0.000000
v 0.073731 -1.114549 0.000000
v -0.042902 -1.050929 0.063965
v -0.042902 -1.050929 0.063965
v -0.042902 -1.050929 0.063965
v 0.042902 -1.114549 0.063965
v 0.042902 -1.114549 0.063965
v 0.042902 -1.114549 0.063965
v -0.148887 -0.321548 0.127930
v -0.148887 -0.321548 0.127930
v -0.148887 -0.321548 0.127930
v -0.148887 -0.321548 -0.127930
v -0.148887 -0.321548 -0.127930
v -0.148887 -0.321548 -0.127930
v -0.255872 -0.395251 0.000000
v -0.255872 -0.395251 0.000000
v -0.255872 -0.395251 0.000000
v -0.148887 -0.395251 0.127930
v -0.148887 -0.395251 0.127930
v -0.148887 -0.395251 0.127930
v 0.148887 -0.395251 -0.127930
v 0.148887 -0.395251 -0.127930
v 0.148887 -0.395251 -0.127930
v -0.148887 -0.395251 -0.127930
v -0.148887 -0.395251 -0.127930
v -0.148887 -0.395251 -0.127930
v 0.255872 -0.584333 0.000000
v 0.255872 -0.584333 0.000000
v 0.255872 -0.584333 0.000000
v 0.148887 -0.584333 0.127930
v 0.148887 -0.584333 0.127930
v 0.148887 -0.584333 0.127930
v -0.255872 -0.647715 0.000000
v -0.255872 -0.647715 0.000000
v -0.255872 -0.647715 0.000000
v 0.148887 -0.647715 -0.127930
v 0.148887 -0.647715 -0.127930
v 0.148887 -0.647715 -0.127930
v -0.148887 -0.647715 -0.127930
v -0.148887 -0.647715 -0.127930
v -0.148887 -0.647715 -0.127930
v 0.255872 -0.647715 0.000000
v 0.255872 -0.647715 0.000000
v 0.255872 -0.647715 0.000000
v -0.147461 -1.050929 0.000000
v -0.147461 -1.050929 0.000000
v -0.147461 -1.050929 0.000000
v -0.042902 -1.114549 -0.063965
v -0.042902 -1.114549 -0.063965
v -0.042902 -1.114549 -0.063965
v -0.073731 -1.114549 0.000000
v -0.073731 -1.114549 0.000000
v -0.073731 -1.114549 0.000000
v -0.085805 -1.050929 -0.127930
v -0.085805 -1.050929 -0.127930
v -0.085805 -1.050929 -0.127930
v -0.042902 -1.114549 0.063965
v -0.042902 -1.114549 0.063965
v -0.042902 -1.114549 0.063965
v 0.147461 -1.050929 0.000000
v 0.147461 -1.050929 0.000000
v 0.147461 -1.050929 0.000000
v 0.073731 -1.050929 0.000000
v 0.073731 -1.050929 0.000000
v 0.073731 -1.050929 0.000000
v 0.042902 -1.050929 0.063965
v 0.042902 -1.050929 0.063965
v 0.042902 -1.050929 0.063965
v 0.085805 -1.050929 0.127930
v 0.085805 -1.050929 0.127930
v 0.085805 -1.050929 0.127930
v -0.147461 -1.114549 0.000000
v -0.147461 -1.114549 0.000000
v -0.147461 -1.114549 0.000000
v -0.085805 -1.114549 0.127930
v -0.085805 -1.114549 0.127930
v -0.085805 -1.114549 0.127930
v 0.042902 -1.050929 -0.063965
v 0.042902 -1.050929 -0.063965
v 0.042902 -1.050929 -0.063965
v 0.085805 -1.050929 -0.127930
v 0.085805 -1.050929 -0.127930
v 0.085805 -1.050929 -0.127930
v 0.085805 -1.114549 -0.127930
v 0.085805 -1.114549 -0.127930
v 0.085805 -1.114549 -0.127930
v 0.147461 -1.114549 0.000000
v 0.147461 -1.114549 0.000000
v 0.147461 -1.114549 0.000000
v 0.085805 -1.114549 0.127930
v 0.085805 -1.114549 0.127930
v 0.085805 -1.114549 0.127930
v -0.085805 -1.114549 -0.127930
v -0.085805 -1.114549 -0.127930
v -0.085805 -1.114549 -0.127930
v -0.085805 -1.050929 0.127930
v -0.085805 -1.050929 0.127930
v -0.085805 -1.050929 0.127930
vt 0.348798 0.894139
vt 0.312338 0.000000
vt 0.348798 0.001938
vt 0.312338 0.892202
vt 0.210859 0.000000
vt 0.312338 0.000000
vt 0.000000 0.105860
vt 0.036460 1.000000
vt 0.000000 0.998062
vt 0.036460 0.107798
vt 0.137939 1.000000
vt 0.036460 1.000000
vt 0.699597 0.686611
vt 0.828335 0.784056
vt 0.699597 0.784056
vt 0.610384 0.586130
vt 0.697579 0.599842
vt 0.610384 0.669862
vt 0.210859 0.892202
vt 0.174399 0.001938
vt 0.210859 0.000000
vt 0.137939 0.107798
vt 0.174399 0.998062
vt 0.137939 1.000000
vt 0.036460 0.107798
vt 0.000000 0.105860
vt 0.087199 0.000000
vt 0.210859 0.892202
vt 0.261599 1.000000
vt 0.174399 0.894139
vt 0.312338 0.892202
vt 0.261599 1.000000
vt 0.210859 0.892202
vt 0.137939 0.107798
vt 0.087199 0.000000
vt 0.174399 0.105860
vt 0.312338 0.892202
vt 0.348798 0.894139
vt 0.261599 1.000000
vt 0.036460 0.107798
vt 0.087199 0.000000
vt 0.137939 0.107798
vt 0.392396 0.216188
vt 0.348798 0.070021
vt 0.392396 0.118743
vt 0.435993 0.454141
vt 0.523189 0.404952
vt 0.479591 0.474318
vt 0.435993 0.083733
vt 0.523189 0.070021
vt 0.479591 0.118743
vt 0.435993 0.550653
vt 0.348798 0.599842
vt 0.392396 0.530476
vt 0.610384 0.251198
vt 0.523189 0.264911
vt 0.566786 0.216188
vt 0.479591 0.118743
vt 0.523189 0.264911
vt 0.479591 0.216188
vt 0.350816 0.704873
vt 0.479554 0.802318
vt 0.350816 0.802318
vt 0.350816 0.802318
vt 0.477536 0.837328
vt 0.348798 0.837328
vt 0.697579 0.651601
vt 0.828335 0.686611
vt 0.699597 0.686611
vt 0.348798 0.669862
vt 0.479554 0.704873
vt 0.350816 0.704873
vt 0.699597 0.784056
vt 0.826317 0.819066
vt 0.697579 0.819066
vt 0.528923 0.786551
vt 0.580073 0.842709
vt 0.528923 0.842709
vt 0.610384 0.083733
vt 0.697579 0.070021
vt 0.653981 0.118743
vt 0.610384 0.418664
vt 0.697579 0.404952
vt 0.653981 0.453674
vt 0.610384 0.083733
vt 0.523189 0.070021
vt 0.610384 0.000000
vt 0.479591 0.474318
vt 0.523189 0.599842
vt 0.479591 0.530476
vt 0.435993 0.251198
vt 0.348798 0.264911
vt 0.392396 0.216188
vt 0.570503 0.669862
vt 0.614100 0.690039
vt 0.570503 0.766374
vt 0.528923 0.842709
vt 0.578055 0.862886
vt 0.526905 0.862886
vt 0.526905 0.766374
vt 0.580073 0.786551
vt 0.528923 0.786551
vt 0.614100 0.669862
vt 0.667268 0.690039
vt 0.616118 0.690039
vt 0.616118 0.746197
vt 0.665250 0.766374
vt 0.614100 0.766374
vt 0.616118 0.690039
vt 0.667268 0.746197
vt 0.616118 0.746197
vt 0.948775 0.456068
vt 0.902630 0.386047
vt 0.952811 0.386047
vt 0.876005 0.264911
vt 0.922150 0.334931
vt 0.871970 0.334931
vt 0.876005 0.070021
vt 0.926186 0.264911
vt 0.876005 0.264911
vt 0.948775 0.650958
vt 0.898594 0.456068
vt 0.948775 0.456068
vt 0.871969 0.000000
vt 0.926186 0.070021
vt 0.876005 0.070021
vt 0.952811 0.720978
vt 0.898594 0.650958
vt 0.948775 0.650958
vt 0.952811 0.386047
vt 1.000000 0.456068
vt 0.956846 0.456068
vt 0.926186 0.000000
vt 0.973375 0.070021
vt 0.930222 0.070021
vt 0.930222 0.264911
vt 0.969340 0.334931
vt 0.926186 0.334931
vt 0.930222 0.070021
vt 0.973375 0.264911
vt 0.930222 0.264911
vt 0.956846 0.456068
vt 1.000000 0.650958
vt 0.956846 0.650958
vt 0.956846 0.650958
vt 0.995964 0.720978
vt 0.952811 0.720978
vt 0.566786 0.216188
vt 0.523189 0.070021
vt 0.566786 0.118743
vt 0.566786 0.551119
vt 0.523189 0.404952
vt 0.566786 0.453674
vt 0.435993 0.251198
vt 0.523189 0.264911
vt 0.435993 0.334931
vt 0.435993 0.550653
vt 0.523189 0.599842
vt 0.435993 0.669862
vt 0.610384 0.418664
vt 0.523189 0.404952
vt 0.610384 0.334931
vt 0.435993 0.083733
vt 0.348798 0.070021
vt 0.435993 0.000000
vt 0.653981 0.118743
vt 0.697579 0.264911
vt 0.653981 0.216188
vt 0.392396 0.530476
vt 0.348798 0.404952
vt 0.392396 0.474318
vt 0.610384 0.251198
vt 0.697579 0.264911
vt 0.610384 0.334931
vt 0.653981 0.453674
vt 0.697579 0.599842
vt 0.653981 0.551119
vt 0.435993 0.454141
vt 0.348798 0.404952
vt 0.435993 0.334931
vt 0.610384 0.586130
vt 0.523189 0.599842
vt 0.566786 0.551119
vt 0.828372 0.261456
vt 0.871969 0.345694
vt 0.828372 0.317614
vt 0.741177 0.124591
vt 0.697579 0.040353
vt 0.741177 0.068433
vt 0.741177 0.261456
vt 0.784774 0.193024
vt 0.784774 0.241279
vt 0.828372 0.124591
vt 0.784774 0.193024
vt 0.784774 0.144768
vt 0.741177 0.068433
vt 0.784774 0.000000
vt 0.784774 0.048256
vt 0.828372 0.317614
vt 0.784774 0.386047
vt 0.784774 0.337791
vt 0.819099 0.649663
vt 0.877582 0.386047
vt 0.877582 0.649663
vt 0.877582 0.649663
vt 0.898594 0.387985
vt 0.898594 0.651601
vt 0.798087 0.651601
vt 0.819099 0.386047
vt 0.819099 0.649663
vt 0.798087 0.386047
vt 0.777075 0.651601
vt 0.777075 0.387985
vt 0.718591 0.387985
vt 0.697579 0.649663
vt 0.697579 0.386047
vt 0.777075 0.387985
vt 0.718591 0.651601
vt 0.718591 0.387985
vt 0.483589 0.710216
vt 0.526905 0.822533
vt 0.483589 0.822533
vt 0.483589 0.822533
vt 0.522870 0.862886
vt 0.479554 0.862886
vt 0.479554 0.669862
vt 0.526905 0.710216
vt 0.483589 0.710216
vt 0.828335 0.651601
vt 0.875686 0.691954
vt 0.832370 0.691954
vt 0.832370 0.804271
vt 0.871651 0.844624
vt 0.828335 0.844624
vt 0.832370 0.691954
vt 0.875686 0.804271
vt 0.832370 0.804271
vt 0.828372 0.068433
vt 0.784774 0.000000
vt 0.871969 0.040353
vt 0.741177 0.317614
vt 0.784774 0.386047
vt 0.697579 0.345694
vt 0.828372 0.261456
vt 0.784774 0.193024
vt 0.871969 0.233377
vt 0.741177 0.124591
vt 0.784774 0.193024
vt 0.697579 0.152670
vt 0.741177 0.317614
vt 0.697579 0.233377
vt 0.741177 0.261456
vt 0.828372 0.068433
vt 0.871969 0.152670
vt 0.828372 0.124591
vt 0.312338 0.892202
vt 0.210859 0.892202
vt 0.036460 0.107798
vt 0.137939 0.107798
vt 0.828335 0.686611
vt 0.653981 0.551119
vt 0.174399 0.894139
vt 0.174399 0.105860
vt 0.348798 0.264911
vt 0.435993 0.334931
vt 0.435993 0.000000
vt 0.435993 0.669862
vt 0.610384 0.334931
vt 0.523189 0.070021
vt 0.479554 0.704873
vt 0.479554 0.802318
vt 0.826317 0.651601
vt 0.477536 0.669862
vt 0.828335 0.784056
vt 0.580073 0.786551
vt 0.610384 0.000000
vt 0.610384 0.334931
vt 0.566786 0.118743
vt 0.523189 0.404952
vt 0.435993 0.334931
vt 0.526905 0.746197
vt 0.526905 0.690039
vt 0.614100 0.746197
vt 0.580073 0.842709
vt 0.578055 0.766374
vt 0.665250 0.669862
vt 0.667268 0.746197
vt 0.667268 0.690039
vt 0.898594 0.456068
vt 0.926186 0.264911
vt 0.926186 0.070021
vt 0.898594 0.650958
vt 0.922150 0.000000
vt 0.902630 0.720978
vt 0.995964 0.386047
vt 0.969340 0.000000
vt 0.973375 0.264911
vt 0.973375 0.070021
vt 1.000000 0.456068
vt 1.000000 0.650958
vt 0.523189 0.264911
vt 0.523189 0.599842
vt 0.479591 0.216188
vt 0.479591 0.530476
vt 0.566786 0.453674
vt 0.392396 0.118743
vt 0.697579 0.070021
vt 0.348798 0.599842
vt 0.653981 0.216188
vt 0.697579 0.404952
vt 0.392396 0.474318
vt 0.610384 0.669862
vt 0.871969 0.233377
vt 0.697579 0.152670
vt 0.697579 0.233377
vt 0.871969 0.152670
vt 0.697579 0.040353
vt 0.871969 0.345694
vt 0.819099 0.386047
vt 0.877582 0.386047
vt 0.798087 0.387985
vt 0.798087 0.649663
vt 0.718591 0.651601
vt 0.777075 0.651601
vt 0.526905 0.710216
vt 0.526905 0.822533
vt 0.522870 0.669862
vt 0.871651 0.651601
vt 0.875686 0.804271
vt 0.875686 0.691954
vt 0.784774 0.048256
vt 0.784774 0.337791
vt 0.784774 0.241279
vt 0.784774 0.144768
vt 0.697579 0.345694
vt 0.871969 0.040353
vn -0.7671 0.0000 -0.6415
vn 0.0000 0.0000 -1.0000
vn 0.7671 0.0000 0.6415
vn 0.0000 0.0000 1.0000
vn 0.0000 -1.0000 0.0000
vn 0.7671 0.0000 -0.6415
vn -0.7671 0.0000 0.6415
vn 0.6560 0.5183 0.5486
vn 0.6560 0.5183 -0.5486
vn 0.0000 0.3674 -0.9301
vn -0.6560 0.5183 0.5486
vn -0.6560 0.5183 -0.5486
vn 0.0000 0.3674 0.9301
vn 0.0000 1.0000 -0.0000
vn -0.9008 0.0000 -0.4342
vn 0.9008 0.0000 -0.4342
vn -0.9008 0.0000 0.4342
vn 0.9008 0.0000 0.4342
s off
f 95/1/1 101/2/1 87/3/1
f 99/4/2 104/5/2 102/6/2
f 113/7/3 119/8/3 111/9/3
f 117/10/4 90/11/4 120/12/4
f 131/13/4 178/14/4 142/15/4
f 127/16/5 256/17/5 253/18/5
f 108/19/6 110/20/6 105/21/6
f 93/22/7 86/23/7 89/24/7
f 118/25/8 115/26/8 122/27/8
f 109/28/9 124/29/9 12/30/9
f 100/31/10 125/32/10 8/33/10
f 94/34/11 123/35/11 97/36/11
f 4/37/12 10/38/12 13/39/12
f 6/40/13 126/41/13 2/42/13
f 174/43/14 268/44/14 180/45/14
f 194/46/5 208/47/5 197/48/5
f 175/49/14 157/50/14 154/51/14
f 182/52/5 278/53/5 191/54/5
f 88/55/14 247/56/14 91/57/14
f 155/58/14 148/59/14 151/60/14
f 133/61/2 153/62/2 136/63/2
f 137/64/1 170/65/1 128/66/1
f 129/67/7 172/68/7 132/69/7
f 139/70/6 22/71/6 134/72/6
f 143/73/3 176/74/3 140/75/3
f 229/76/2 223/77/2 286/78/2
f 112/79/14 160/80/14 106/81/14
f 141/82/5 163/83/5 144/84/5
f 11/85/14 202/86/14 200/87/14
f 196/88/5 205/89/5 185/90/5
f 171/91/14 212/92/14 21/93/14
f 225/94/5 227/95/5 217/96/5
f 287/97/15 218/98/15 289/99/15
f 238/100/16 34/101/16 230/102/16
f 290/103/17 220/104/17 295/105/17
f 244/106/18 36/107/18 239/108/18
f 296/109/4 37/110/4 245/111/4
f 251/112/1 254/113/1 146/114/1
f 204/115/3 168/116/3 201/117/3
f 248/118/4 164/119/4 203/120/4
f 161/121/2 262/122/2 250/123/2
f 38/124/7 45/125/7 39/126/7
f 42/127/6 260/128/6 40/129/6
f 267/130/6 275/131/6 159/132/6
f 216/133/7 206/134/7 213/135/7
f 269/136/3 60/137/3 266/138/3
f 51/139/4 61/140/4 55/141/4
f 52/142/2 277/143/2 150/144/2
f 149/145/1 56/146/1 215/147/1
f 1/148/14 43/149/14 5/150/14
f 138/151/5 261/152/5 135/153/5
f 20/154/14 53/155/14 50/156/14
f 181/157/5 207/158/5 273/159/5
f 18/160/5 46/161/5 48/162/5
f 24/163/14 270/164/14 54/165/14
f 7/166/14 252/167/14 103/168/14
f 190/169/5 276/170/5 187/171/5
f 9/172/14 41/173/14 147/174/14
f 19/175/5 258/176/5 15/177/5
f 193/178/5 58/179/5 282/180/5
f 14/181/5 47/182/5 17/183/5
f 246/184/5 313/185/5 297/186/5
f 242/187/14 307/188/14 304/189/14
f 231/190/5 326/191/5 240/192/5
f 233/193/14 283/194/14 236/195/14
f 306/196/14 298/197/14 301/198/14
f 66/199/5 310/200/5 291/201/5
f 189/202/2 232/203/2 192/204/2
f 29/205/15 235/206/15 183/207/15
f 195/208/16 317/209/16 28/210/16
f 26/211/17 241/212/17 186/213/17
f 198/214/18 303/215/18 30/216/18
f 27/217/4 73/218/4 31/219/4
f 334/220/4 328/221/4 308/222/4
f 78/223/18 325/224/18 299/225/18
f 284/226/17 80/227/17 335/228/17
f 300/229/16 322/230/16 319/231/16
f 293/232/15 311/233/15 84/234/15
f 320/235/2 332/236/2 294/237/2
f 318/238/14 76/239/14 321/240/14
f 288/241/5 81/242/5 333/243/5
f 67/244/5 327/245/5 79/246/5
f 70/247/14 285/248/14 85/249/14
f 63/250/5 75/251/5 62/252/5
f 71/253/14 83/254/14 68/255/14
f 95/1/1 98/256/1 101/2/1
f 99/4/2 107/257/2 104/5/2
f 113/7/3 116/258/3 119/8/3
f 117/10/4 92/259/4 90/11/4
f 131/13/4 173/260/4 178/14/4
f 127/16/5 130/261/5 256/17/5
f 108/19/6 114/262/6 110/20/6
f 93/22/7 96/263/7 86/23/7
f 174/43/14 211/264/14 268/44/14
f 194/46/5 281/265/5 208/47/5
f 175/49/14 265/266/14 157/50/14
f 182/52/5 272/267/5 278/53/5
f 88/55/14 145/268/14 247/56/14
f 155/58/14 158/269/14 148/59/14
f 133/61/2 156/270/2 153/62/2
f 137/64/1 152/271/1 170/65/1
f 129/67/7 169/272/7 172/68/7
f 139/70/6 177/273/6 22/71/6
f 143/73/3 179/274/3 176/74/3
f 229/76/2 221/275/2 223/77/2
f 112/79/14 199/276/14 160/80/14
f 141/82/5 166/277/5 163/83/5
f 11/85/14 121/278/14 202/86/14
f 196/88/5 209/279/5 205/89/5
f 171/91/14 214/280/14 212/92/14
f 217/96/5 224/281/5 222/282/5
f 222/282/5 225/94/5 217/96/5
f 227/95/5 219/283/5 217/96/5
f 287/97/15 35/284/15 218/98/15
f 238/100/16 226/285/16 34/101/16
f 290/103/17 32/286/17 220/104/17
f 244/106/18 228/287/18 36/107/18
f 296/109/4 33/288/4 37/110/4
f 251/112/1 263/289/1 254/113/1
f 204/115/3 165/290/3 168/116/3
f 248/118/4 257/291/4 164/119/4
f 161/121/2 259/292/2 262/122/2
f 38/124/7 44/293/7 45/125/7
f 42/127/6 167/294/6 260/128/6
f 267/130/6 280/295/6 275/131/6
f 216/133/7 271/296/7 206/134/7
f 269/136/3 210/297/3 60/137/3
f 51/139/4 57/298/4 61/140/4
f 52/142/2 274/299/2 277/143/2
f 149/145/1 279/300/1 56/146/1
f 1/148/14 249/301/14 43/149/14
f 138/151/5 264/302/5 261/152/5
f 20/154/14 23/303/14 53/155/14
f 181/157/5 184/304/5 207/158/5
f 18/160/5 16/305/5 46/161/5
f 24/163/14 25/306/14 270/164/14
f 7/166/14 162/307/14 252/167/14
f 190/169/5 59/308/5 276/170/5
f 9/172/14 3/309/14 41/173/14
f 19/175/5 49/310/5 258/176/5
f 193/178/5 188/311/5 58/179/5
f 14/181/5 255/312/5 47/182/5
f 246/184/5 329/313/5 313/185/5
f 242/187/14 336/314/14 307/188/14
f 231/190/5 323/315/5 326/191/5
f 233/193/14 292/316/14 283/194/14
f 306/196/14 309/317/14 298/197/14
f 66/199/5 314/318/5 310/200/5
f 189/202/2 316/319/2 232/203/2
f 29/205/15 234/320/15 235/206/15
f 195/208/16 302/321/16 317/209/16
f 26/211/17 237/322/17 241/212/17
f 198/214/18 305/323/18 303/215/18
f 27/217/4 243/324/4 73/218/4
f 334/220/4 315/325/4 328/221/4
f 78/223/18 330/326/18 325/224/18
f 284/226/17 312/327/17 80/227/17
f 300/229/16 77/328/16 322/230/16
f 293/232/15 331/329/15 311/233/15
f 320/235/2 324/330/2 332/236/2
f 318/238/14 72/331/14 76/239/14
f 288/241/5 64/332/5 81/242/5
f 67/244/5 65/333/5 327/245/5
f 70/247/14 69/334/14 285/248/14
f 63/250/5 82/335/5 75/251/5
f 71/253/14 74/336/14 83/254/14
